<svg xmlns="http://www.w3.org/2000/svg" width="188.398" height="189.201" viewBox="0 0 188.398 189.201">
  <g id="Groupe_1" data-name="Groupe 1" transform="translate(-2049.602 -1111.308)">
    <path id="Tracé_1" data-name="Tracé 1" d="M2193.767,1277.759h0a13.54,13.54,0,0,0-20.636,10.35h0c-1.175,13.765-19.788,17.138-25.719,4.661h0a13.54,13.54,0,0,0-22.955-2.45h0c-8.43,10.945-25.913,3.72-24.156-9.983h0a13.54,13.54,0,0,0-17.987-14.471h0c-13.009,4.649-23.81-10.881-14.924-21.459h0a13.539,13.539,0,0,0-7.308-21.9h0c-13.457-3.122-14.147-22.026-.953-26.121h0a13.54,13.54,0,0,0,5.691-22.373h0c-9.633-9.9.007-26.178,13.32-22.489h0a13.54,13.54,0,0,0,16.884-15.744h0c-2.751-13.538,14.158-22.019,23.364-11.718h0a13.539,13.539,0,0,0,22.715-4.117h0c5.006-12.876,23.816-10.869,25.991,2.774h0a13.54,13.54,0,0,0,21.335,8.818h0c11.172-8.127,25.911,3.732,20.365,16.384h0a13.54,13.54,0,0,0,13.181,18.953h0c13.792-.8,19.78,17.148,8.274,24.794h0a13.54,13.54,0,0,0,.842,23.07h0c12.033,6.787,7.369,25.12-6.444,25.331h0a13.539,13.539,0,0,0-11.764,19.863h0C2219.336,1272.148,2205.5,1285.049,2193.767,1277.759Z" fill="#576d5d"/>
    <path id="Tracé_2" data-name="Tracé 2" d="M2179.347,1280.486h0a5.519,5.519,0,0,0-9.885,4.009h0c.811,6.416-8.175,8.753-10.593,2.755h0a5.518,5.518,0,0,0-10.585,1.314h0c-.878,6.407-10.163,6.338-10.945-.081h0a5.519,5.519,0,0,0-10.566-1.471h0c-2.5,5.962-11.456,3.493-10.551-2.911h0a5.518,5.518,0,0,0-9.824-4.154h0c-3.964,5.11-11.971.408-9.439-5.543h0a5.518,5.518,0,0,0-8.414-6.556h0c-5.151,3.91-11.668-2.7-7.682-7.8h0a5.518,5.518,0,0,0-6.431-8.51h0c-5.987,2.444-10.571-5.632-5.4-9.519h0a5.519,5.519,0,0,0-4.01-9.885h0c-6.416.811-8.752-8.176-2.754-10.593h0a5.519,5.519,0,0,0-1.314-10.586h0c-6.408-.877-6.339-10.162.081-10.945h0a5.518,5.518,0,0,0,1.47-10.565h0c-5.962-2.506-3.492-11.457,2.911-10.551h0a5.519,5.519,0,0,0,4.155-9.825h0c-5.11-3.963-.408-11.97,5.542-9.438h0a5.519,5.519,0,0,0,6.556-8.415h0c-3.91-5.151,2.7-11.668,7.8-7.682h0a5.518,5.518,0,0,0,8.51-6.431h0c-2.443-5.987,5.632-10.57,9.52-5.4h0a5.518,5.518,0,0,0,9.884-4.009h0c-.81-6.416,8.176-8.753,10.594-2.755h0a5.518,5.518,0,0,0,10.585-1.314h0c.878-6.407,10.163-6.338,10.945.081h0a5.518,5.518,0,0,0,10.565,1.47h0c2.506-5.961,11.457-3.492,10.552,2.911h0a5.518,5.518,0,0,0,9.824,4.155h0c3.964-5.11,11.97-.408,9.439,5.543h0a5.518,5.518,0,0,0,8.414,6.556h0c5.151-3.91,11.668,2.7,7.682,7.8h0a5.519,5.519,0,0,0,6.431,8.511h0c5.987-2.444,10.571,5.632,5.4,9.519h0a5.519,5.519,0,0,0,4.01,9.885h0c6.415-.811,8.752,8.176,2.754,10.593h0a5.519,5.519,0,0,0,1.314,10.586h0c6.407.877,6.339,10.162-.081,10.945h0a5.518,5.518,0,0,0-1.47,10.565h0c5.962,2.506,3.492,11.457-2.911,10.551h0a5.519,5.519,0,0,0-4.155,9.825h0c5.11,3.963.408,11.97-5.542,9.438h0a5.518,5.518,0,0,0-6.556,8.414h0c3.91,5.151-2.7,11.668-7.8,7.683h0a5.518,5.518,0,0,0-8.51,6.431h0C2191.31,1281.071,2183.235,1285.654,2179.347,1280.486Z" fill="#576d5d"/>
  </g>
</svg>
