<svg xmlns="http://www.w3.org/2000/svg" width="188.398" height="189.201" viewBox="0 0 188.398 189.201">
  <g id="Groupe_4" data-name="Groupe 4" transform="translate(-626 -481)">
    <g id="Groupe_1" data-name="Groupe 1" transform="translate(-1423.602 -630.308)">
      <path id="Tracé_1" data-name="Tracé 1" d="M2193.767,1277.759h0a13.54,13.54,0,0,0-20.636,10.35h0c-1.175,13.765-19.788,17.138-25.719,4.661h0a13.54,13.54,0,0,0-22.955-2.45h0c-8.43,10.945-25.913,3.72-24.156-9.983h0a13.54,13.54,0,0,0-17.987-14.471h0c-13.009,4.649-23.81-10.881-14.924-21.459h0a13.539,13.539,0,0,0-7.308-21.9h0c-13.457-3.122-14.147-22.026-.953-26.121h0a13.54,13.54,0,0,0,5.691-22.373h0c-9.633-9.9.007-26.178,13.32-22.489h0a13.54,13.54,0,0,0,16.884-15.744h0c-2.751-13.538,14.158-22.019,23.364-11.718h0a13.539,13.539,0,0,0,22.715-4.117h0c5.006-12.876,23.816-10.869,25.991,2.774h0a13.54,13.54,0,0,0,21.335,8.818h0c11.172-8.127,25.911,3.732,20.365,16.384h0a13.54,13.54,0,0,0,13.181,18.953h0c13.792-.8,19.78,17.148,8.274,24.794h0a13.54,13.54,0,0,0,.842,23.07h0c12.033,6.787,7.369,25.12-6.444,25.331h0a13.539,13.539,0,0,0-11.764,19.863h0C2219.336,1272.148,2205.5,1285.049,2193.767,1277.759Z" fill="#576d5d"/>
      <path id="Tracé_2" data-name="Tracé 2" d="M2179.347,1280.486h0a5.519,5.519,0,0,0-9.885,4.009h0c.811,6.416-8.175,8.753-10.593,2.755h0a5.518,5.518,0,0,0-10.585,1.314h0c-.878,6.407-10.163,6.338-10.945-.081h0a5.519,5.519,0,0,0-10.566-1.471h0c-2.5,5.962-11.456,3.493-10.551-2.911h0a5.518,5.518,0,0,0-9.824-4.154h0c-3.964,5.11-11.971.408-9.439-5.543h0a5.518,5.518,0,0,0-8.414-6.556h0c-5.151,3.91-11.668-2.7-7.682-7.8h0a5.518,5.518,0,0,0-6.431-8.51h0c-5.987,2.444-10.571-5.632-5.4-9.519h0a5.519,5.519,0,0,0-4.01-9.885h0c-6.416.811-8.752-8.176-2.754-10.593h0a5.519,5.519,0,0,0-1.314-10.586h0c-6.408-.877-6.339-10.162.081-10.945h0a5.518,5.518,0,0,0,1.47-10.565h0c-5.962-2.506-3.492-11.457,2.911-10.551h0a5.519,5.519,0,0,0,4.155-9.825h0c-5.11-3.963-.408-11.97,5.542-9.438h0a5.519,5.519,0,0,0,6.556-8.415h0c-3.91-5.151,2.7-11.668,7.8-7.682h0a5.518,5.518,0,0,0,8.51-6.431h0c-2.443-5.987,5.632-10.57,9.52-5.4h0a5.518,5.518,0,0,0,9.884-4.009h0c-.81-6.416,8.176-8.753,10.594-2.755h0a5.518,5.518,0,0,0,10.585-1.314h0c.878-6.407,10.163-6.338,10.945.081h0a5.518,5.518,0,0,0,10.565,1.47h0c2.506-5.961,11.457-3.492,10.552,2.911h0a5.518,5.518,0,0,0,9.824,4.155h0c3.964-5.11,11.97-.408,9.439,5.543h0a5.518,5.518,0,0,0,8.414,6.556h0c5.151-3.91,11.668,2.7,7.682,7.8h0a5.519,5.519,0,0,0,6.431,8.511h0c5.987-2.444,10.571,5.632,5.4,9.519h0a5.519,5.519,0,0,0,4.01,9.885h0c6.415-.811,8.752,8.176,2.754,10.593h0a5.519,5.519,0,0,0,1.314,10.586h0c6.407.877,6.339,10.162-.081,10.945h0a5.518,5.518,0,0,0-1.47,10.565h0c5.962,2.506,3.492,11.457-2.911,10.551h0a5.519,5.519,0,0,0-4.155,9.825h0c5.11,3.963.408,11.97-5.542,9.438h0a5.518,5.518,0,0,0-6.556,8.414h0c3.91,5.151-2.7,11.668-7.8,7.683h0a5.518,5.518,0,0,0-8.51,6.431h0C2191.31,1281.071,2183.235,1285.654,2179.347,1280.486Z" fill="#576d5d"/>
    </g>
    <g id="Groupe_2" data-name="Groupe 2" transform="translate(-1424.239 -630.497)">
      <path id="Tracé_3" data-name="Tracé 3" d="M2140.689,1216.057c-1.207,0-1.9.027-3.111.107v-.215a2.7,2.7,0,0,0,1.18-1.072,8.507,8.507,0,0,0,.348-2.091l-.08-7.159c-.027-2.9-1.662-5.39-5.041-5.524-3.78-.16-5.6,3.727-5.577,7.321l.081,5.362a4.969,4.969,0,0,0,.321,2.172,2.581,2.581,0,0,0,1.153.991v.215c-.911-.053-1.474-.08-2.412-.08-1.18,0-1.878,0-3.057.08v-.215a2.53,2.53,0,0,0,1.1-1.018,4.056,4.056,0,0,0,.429-2.145l-.054-9.76a3.366,3.366,0,0,0-.563-1.5,2.3,2.3,0,0,0-.7-.617l.027-.24c.643-.135,1.046-.215,1.689-.376.483-.134.777-.214,1.233-.376l.215.108a7.914,7.914,0,0,1,.081.965,19.341,19.341,0,0,0,.161,2.547l.08.349.375-.831a6.208,6.208,0,0,1,5.952-3.754c4.291.215,6.838,2.387,6.971,6.247l.3,7.24a6.315,6.315,0,0,0,.4,2.172,2.668,2.668,0,0,0,1.153.991v.215C2142.324,1216.084,2141.707,1216.057,2140.689,1216.057Z" fill="#fff"/>
      <path id="Tracé_4" data-name="Tracé 4" d="M2150.344,1200.935a2.673,2.673,0,0,1-2.655-2.709,2.634,2.634,0,0,1,2.6-2.574,2.713,2.713,0,0,1,2.708,2.682A2.668,2.668,0,0,1,2150.344,1200.935Zm0-4.558a1.917,1.917,0,1,0,0,3.834,1.917,1.917,0,1,0,0-3.834Z" fill="#fff"/>
      <path id="Tracé_5" data-name="Tracé 5" d="M2160.239,1216.057c-1.26,0-2.011,0-3.244.107v-.268a2.18,2.18,0,0,0,1.233-.778,2.554,2.554,0,0,0,.59-1.8v-12.065a5.243,5.243,0,0,0-.564-2.6,2.252,2.252,0,0,0-1.34-.75l-.027-.161c.858-.269,1.367-.429,2.2-.7.724-.242,1.153-.4,1.877-.67,0,.026-.08.589-.08.965-.054.643-.027,1.635-.027,1.742l.4,13.7a3.261,3.261,0,0,0,.536,2.252,2.37,2.37,0,0,0,1.314.885v.241C2162.009,1216.084,2161.338,1216.057,2160.239,1216.057Z" fill="#fff"/>
    </g>
    <g id="Groupe_3" data-name="Groupe 3" transform="translate(-1424.239 -630.497)">
      <path id="Tracé_6" data-name="Tracé 6" d="M2106.924,1167.9l-2.444,2.632c-.3.323-.5.49-.8.814-.329.355-.512.563-.816.942l-.057-.053a.736.736,0,0,0,.076-.591,2.022,2.022,0,0,0-.407-.554l-3.266-3.032a1.458,1.458,0,0,0-.557-.34,1.353,1.353,0,0,0-.466-.02l-.058-.053a6.57,6.57,0,0,0,.674-.649,6.423,6.423,0,0,0,.51-.625l.057.053a.808.808,0,0,0,.02.385,1.019,1.019,0,0,0,.349.642l3.361,2.967c.494.435.823.386,1.555-.364.855-.883,1.744-2.159,1.513-3.271l.06-.051Z" fill="#fff"/>
      <path id="Tracé_7" data-name="Tracé 7" d="M2112.753,1163l-2.981,2.412c-.322.262-.533.387-.856.649-.383.31-.611.495-.967.827l-.043-.054a.826.826,0,0,0,.128-.516c.014-.257-.45-.816-.5-.884l-2.788-3.445a1.094,1.094,0,0,0-.43-.242.891.891,0,0,0-.345-.055l-.049-.061,4.246-3.435,1,.648-.1.057-.134-.014a2.353,2.353,0,0,0-1.155.155,13.768,13.768,0,0,0-2.635,1.876l-.128.1,1.742,2.153,1.622-1.311a1.976,1.976,0,0,0,.722-.829,1.211,1.211,0,0,0,.01-.688l.075-.06c.175.258.294.419.49.661a7.914,7.914,0,0,0,.533.6l-.074.06a1.232,1.232,0,0,0-.738-.06,1.941,1.941,0,0,0-.871.493l-1.6,1.3,1.5,1.746c.6.685.9.353,1.569-.167,1.662-1.289,2.181-2.3,2.13-3.215l.07-.079Z" fill="#fff"/>
      <path id="Tracé_8" data-name="Tracé 8" d="M2119.837,1158.631c-.315.181-.5.3-.8.5l-.034-.06a.558.558,0,0,0,.106-.511.789.789,0,0,0-.386-.427l-2.1-1.5-2.272,1.309.211,2.275a.828.828,0,0,0,.408.744.676.676,0,0,0,.591.089l.034.061c-.312.15-.5.25-.819.432a8.7,8.7,0,0,0-.809.505l-.034-.06a3.031,3.031,0,0,0,.178-.542,4.681,4.681,0,0,0,.087-1.079l-.335-6.48,5.62,3.637a2.511,2.511,0,0,0,.676.34,2.408,2.408,0,0,0,.705.133l.035.06C2120.474,1158.264,2120.242,1158.4,2119.837,1158.631Zm-5.7-3.632.193,2.7,2.086-1.2Z" fill="#fff"/>
      <path id="Tracé_9" data-name="Tracé 9" d="M2124.738,1156.56l-.519.193c-.51.191-.827.235-1.334.434a10.58,10.58,0,0,0-1.086.478l-.028-.072a.9.9,0,0,0,.267-.423,1.325,1.325,0,0,0-.057-.7l-1.622-4.325a1.242,1.242,0,0,0-.385-.512,1.12,1.12,0,0,0-.359-.143l-.027-.073,3.185-1.189c2.091-.78,3.884-.009,4.54,1.676C2128.2,1154.169,2126.674,1155.837,2124.738,1156.56Zm-2.631-5.888-1.28.478,2.006,4.957c.279.7.7.654,1.65.29,1.874-.718,2.734-1.7,1.886-4C2125.416,1149.817,2123.939,1149.989,2122.107,1150.672Z" fill="#fff"/>
      <path id="Tracé_10" data-name="Tracé 10" d="M2135.788,1153.554l-3.756.775c-.407.084-.651.1-1.058.183-.484.1-.772.159-1.239.292l-.014-.069a.821.821,0,0,0,.35-.4c.131-.221-.024-.932-.042-1.017l-.9-4.341a1.085,1.085,0,0,0-.271-.413.924.924,0,0,0-.281-.207l-.016-.076,5.35-1.1.594,1.036-.114.006-.112-.074a2.354,2.354,0,0,0-1.1-.392,13.7,13.7,0,0,0-3.2.457l-.162.034.56,2.713,2.044-.422a1.962,1.962,0,0,0,1.021-.405,1.2,1.2,0,0,0,.326-.607l.093-.019c.038.31.07.507.132.812s.109.482.2.782l-.093.019a1.227,1.227,0,0,0-.629-.391,1.942,1.942,0,0,0-1,.038l-2.018.416.533,2.242c.218.883.637.726,1.471.571,2.07-.382,2.994-1.041,3.369-1.879l.1-.038Z" fill="#fff"/>
      <path id="Tracé_11" data-name="Tracé 11" d="M2142.953,1152.986l-.107-.2c-.356-.648-.819-2.277-1.412-2.669-.549-.359-.859-.334-2.6-.237l-.345.019.235,2.231a1.858,1.858,0,0,0,.2.69c.231.256.336.277.424.3l0,.069c-.356-.007-.564,0-.909.015-.432.024-.682.047-1.112.1l0-.069a1.012,1.012,0,0,0,.37-.368,2.56,2.56,0,0,0,.144-.683l-.258-4.5a1.271,1.271,0,0,0-.218-.656,1.55,1.55,0,0,0-.223-.265l0-.077,2.963-.164c1.365-.076,3.12.009,3.184,1.488.046.984-.929,1.385-1.655,1.556l-.419.1.38.143a2.077,2.077,0,0,1,1.139.708,20.145,20.145,0,0,0,1.161,2.033,3.672,3.672,0,0,0,.424.3l0,.07Zm-3.979-6.157-.674.038.145,2.782,1.909-.105c1.59-.088,1.989-.856,1.916-1.545C2142.109,1146.648,2141.272,1146.7,2138.974,1146.829Z" fill="#fff"/>
      <path id="Tracé_12" data-name="Tracé 12" d="M2151.485,1148.183c-.208-.016-.522-.009-.563.117a1.267,1.267,0,0,0,.32.534c.214.181.251.238.323.291l-.51.34a1.781,1.781,0,0,0-.11-.4c-.081-.28-.186-.649-.348-.677-.059-.007-.284.271-.376.46-.134.246-.288.446-.332.528l-.416-.537a4.648,4.648,0,0,0,.544-.258c.195-.1.394-.311.37-.4s-.318-.186-.593-.218-.436-.077-.522-.079l.246-.606a5.137,5.137,0,0,0,.481.422c.168.133.531.306.561.266a1.235,1.235,0,0,0,.029-.545c-.027-.282-.073-.566-.089-.647l.61.072c-.044.074-.1.319-.221.619-.074.191-.109.484-.038.544a1.766,1.766,0,0,0,.57-.176,4.978,4.978,0,0,0,.439-.254l.144.627C2151.92,1148.191,2151.779,1148.2,2151.485,1148.183Z" fill="#fff"/>
      <path id="Tracé_13" data-name="Tracé 13" d="M2162.37,1156.251c-.3-.093-.474-.139-.779-.207l.021-.066a.914.914,0,0,0,.466-.217,2.128,2.128,0,0,0,.359-.6l1.359-4.672-4.42,4.86-.107-.034-.923-6.455-1.3,4.211a1.638,1.638,0,0,0-.005,1.15,1.339,1.339,0,0,0,.237.4l-.012.068c-.257-.106-.411-.164-.675-.247-.347-.108-.556-.164-.911-.248l.021-.066a1.293,1.293,0,0,0,.516-.2,2.618,2.618,0,0,0,.6-.937l1.176-3.912a1.5,1.5,0,0,0-.016-.731,1.392,1.392,0,0,0-.174-.345l.023-.074a6.991,6.991,0,0,0,.678.239c.223.07.391.113.578.153l.892,5.974,4.033-4.436a3.935,3.935,0,0,0,.469.183,4.448,4.448,0,0,0,.647.166l-.023.074c-.05.011-.132.013-.323.19a1.208,1.208,0,0,0-.272.4l-1.263,4.539a1.728,1.728,0,0,0,.023.741,1.066,1.066,0,0,0,.218.4l-.012.068C2163.056,1156.465,2162.8,1156.385,2162.37,1156.251Z" fill="#fff"/>
      <path id="Tracé_14" data-name="Tracé 14" d="M2167.687,1158.914a3.631,3.631,0,0,1-1.775-4.839,3.551,3.551,0,0,1,4.921-1.365,3.482,3.482,0,1,1-3.146,6.2Zm3.068-6.069c-1.75-.912-3.183.221-3.938,1.7s-.84,3.34.937,4.2c1.807.874,3.023-.234,3.805-1.632C2172.435,1155.548,2172.4,1153.694,2170.755,1152.845Z" fill="#fff"/>
      <path id="Tracé_15" data-name="Tracé 15" d="M2181.293,1160.079a1.628,1.628,0,0,0-.868.717l-3.12,4.264-.1-.077c-.09-1.021-.114-1.618-.229-2.636-.243-2.131-.576-5.563-.622-5.5l-2.561,3.632a2.852,2.852,0,0,0-.449,1.024.968.968,0,0,0,.2.545l-.034.061c-.229-.2-.378-.319-.622-.5-.294-.215-.474-.336-.776-.525l.041-.056a1.273,1.273,0,0,0,.532-.008,2.526,2.526,0,0,0,.866-.729l2.5-3.43a.989.989,0,0,0,.114-.582,3.75,3.75,0,0,0-.067-.392l.046-.063a5.608,5.608,0,0,0,.609.488,4.789,4.789,0,0,0,.516.335c0,.26.01.426.02.691.011.351.71,6.305.772,6.221l2.117-2.937a2.527,2.527,0,0,0,.375-1.057,1.136,1.136,0,0,0-.122-.507l.047-.063a7.5,7.5,0,0,0,.694.562,5.536,5.536,0,0,0,.641.415l-.046.063A.871.871,0,0,0,2181.293,1160.079Z" fill="#fff"/>
      <path id="Tracé_16" data-name="Tracé 16" d="M2180.908,1168.218l-.391-.393c-.385-.387-.555-.657-.946-1.037a10.854,10.854,0,0,0-.885-.792l.055-.055a.911.911,0,0,0,.5.069,1.34,1.34,0,0,0,.613-.342l3.271-3.265a1.237,1.237,0,0,0,.308-.562,1.136,1.136,0,0,0-.018-.386l.056-.054,2.4,2.412c1.575,1.583,1.613,3.536.348,4.83C2184.519,1170.389,2182.366,1169.685,2180.908,1168.218Zm4.279-4.829-.965-.971-3.688,3.877c-.523.543-.309.9.417,1.623,1.428,1.412,2.682,1.788,4.425.067C2187.334,1166.05,2186.566,1164.775,2185.187,1163.389Z" fill="#fff"/>
      <path id="Tracé_17" data-name="Tracé 17" d="M2185.242,1172.992c-.243-.3-.39-.474-.652-.762l.054-.044a.83.83,0,0,0,.512.089,1.367,1.367,0,0,0,.62-.305l3.7-2.9a1.112,1.112,0,0,0,.274-.406,1.457,1.457,0,0,0,.071-.355l.061-.048a4.588,4.588,0,0,0,.439.634,4.706,4.706,0,0,0,.488.529l-.061.048a1.287,1.287,0,0,0-.357,0,1.216,1.216,0,0,0-.435.2l-3.652,2.965a1.78,1.78,0,0,0-.43.585,1.184,1.184,0,0,0-.04.463l-.053.043C2185.585,1173.437,2185.463,1173.27,2185.242,1172.992Z" fill="#fff"/>
      <path id="Tracé_18" data-name="Tracé 18" d="M2190.2,1180.285c-.192-.308-.319-.494-.529-.782l.059-.036a.557.557,0,0,0,.513.087.77.77,0,0,0,.413-.4l1.423-2.152-1.388-2.225-2.266.292a.829.829,0,0,0-.729.434.68.68,0,0,0-.069.594l-.059.036c-.16-.307-.268-.5-.46-.8a8.728,8.728,0,0,0-.533-.789l.059-.036a2.993,2.993,0,0,0,.547.158,4.725,4.725,0,0,0,1.081.049l6.463-.563-3.435,5.743a2.489,2.489,0,0,0-.316.687,2.384,2.384,0,0,0-.108.71l-.059.036C2190.587,1180.909,2190.445,1180.682,2190.2,1180.285Zm3.427-5.82-2.686.289,1.274,2.041Z" fill="#fff"/>
      <path id="Tracé_19" data-name="Tracé 19" d="M2193.592,1187.815l-1.405-3.306c-.173-.407-.243-.659-.415-1.066-.19-.446-.307-.7-.528-1.13l.072-.03a.737.737,0,0,0,.508.31,2.037,2.037,0,0,0,.672-.144l4.1-1.745a1.461,1.461,0,0,0,.539-.37,1.4,1.4,0,0,0,.208-.417l.071-.031a6.785,6.785,0,0,0,.318.881,6.286,6.286,0,0,0,.363.72l-.071.031a.82.82,0,0,0-.36-.139,1.021,1.021,0,0,0-.729.056l-4.083,1.858c-.6.274-.689.594-.3,1.568.457,1.142,1.259,2.475,2.369,2.718l.023.075Z" fill="#fff"/>
      <path id="Tracé_20" data-name="Tracé 20" d="M2200.654,1193.263c-.056-.2-.17-.494-.3-.489a1.29,1.29,0,0,0-.393.484c-.1.264-.138.317-.162.4l-.5-.363a1.789,1.789,0,0,0,.335-.239c.235-.172.546-.4.517-.558a1.146,1.146,0,0,0-.562-.2c-.277-.042-.517-.118-.609-.132l.362-.575a4.648,4.648,0,0,0,.429.424c.159.149.426.263.5.21s.066-.362,0-.632-.076-.436-.1-.518l.655.023a5.042,5.042,0,0,0-.232.6,1.265,1.265,0,0,0-.059.619,1.242,1.242,0,0,0,.523-.159c.255-.122.507-.262.577-.3l.141.6c-.084-.016-.334.016-.657,0-.206-.005-.492.062-.524.15a1.769,1.769,0,0,0,.36.475,4.767,4.767,0,0,0,.389.326l-.54.35C2200.795,1193.674,2200.739,1193.546,2200.654,1193.263Z" fill="#fff"/>
      <path id="Tracé_21" data-name="Tracé 21" d="M2196.572,1202.342l-.031-.553c-.029-.544.022-.859-.016-1.4a10.945,10.945,0,0,0-.135-1.18l.078,0a.915.915,0,0,0,.324.38,1.339,1.339,0,0,0,.684.153l4.613-.263a1.241,1.241,0,0,0,.6-.216,1.154,1.154,0,0,0,.244-.3l.077-.005.188,3.4c.123,2.229-1.147,3.712-2.95,3.837C2197.825,1206.362,2196.686,1204.407,2196.572,1202.342Zm6.4-.761-.075-1.365-5.33.442c-.751.059-.832.47-.767,1.489.128,2,.813,3.117,3.258,2.992C2202.81,1204.995,2203.085,1203.533,2202.976,1201.581Z" fill="#fff"/>
      <path id="Tracé_22" data-name="Tracé 22" d="M2196.122,1214.4c.039-.361.054-.586.066-.942l.069.008a.56.56,0,0,0,.35.386.781.781,0,0,0,.572-.061l2.446-.817.279-2.607-1.964-1.168a.827.827,0,0,0-.841-.107.673.673,0,0,0-.419.425l-.069-.008c.062-.341.094-.555.133-.916a9.072,9.072,0,0,0,.067-.95l.068.007a3,3,0,0,0,.334.462,4.658,4.658,0,0,0,.82.705l5.435,3.541-6.244,2.4a2.44,2.44,0,0,0-.673.346,2.346,2.346,0,0,0-.522.492l-.069-.007C2196.044,1215.131,2196.072,1214.864,2196.122,1214.4Zm6.286-2.468-2.292-1.43-.256,2.393Z" fill="#fff"/>
      <path id="Tracé_23" data-name="Tracé 23" d="M2199.9,1224.9a1.649,1.649,0,0,0-.977-.559l-5.089-1.414.034-.126c.924-.443,1.474-.677,2.386-1.143,1.908-.979,5-2.5,4.924-2.522l-4.3-1.115a2.868,2.868,0,0,0-1.116-.059.989.989,0,0,0-.439.382l-.069-.011c.106-.284.166-.466.247-.758.1-.35.147-.561.217-.91l.066.019a1.3,1.3,0,0,0,.2.494,2.524,2.524,0,0,0,.988.553l4.091,1.128a.971.971,0,0,0,.584-.1,3.959,3.959,0,0,0,.344-.2l.075.021a5.94,5.94,0,0,0-.243.741,4.9,4.9,0,0,0-.13.6c-.243.094-.4.16-.64.263-.325.134-5.647,2.888-5.546,2.915l3.494.945a2.536,2.536,0,0,0,1.12-.021,1.164,1.164,0,0,0,.432-.294l.075.021a7.782,7.782,0,0,0-.28.848,5.512,5.512,0,0,0-.163.746l-.075-.022A.878.878,0,0,0,2199.9,1224.9Z" fill="#fff"/>
      <path id="Tracé_24" data-name="Tracé 24" d="M2192.173,1227.151a7.472,7.472,0,0,1,1.657-2.188l.154-.13.84.791-.072.035-.089-.012c-1.168-.208-2.076,1.063-2.444,1.846s-.481,2.078.541,2.524c.987.422,1.51-.6,2.1-1.44l.16-.231c.63-.9,1.463-1.858,2.484-1.365,1.341.646,1.183,2.147.666,3.243a7.568,7.568,0,0,1-1.5,2.048l-.119.1-.781-.69.074-.061.087.019c.956.19,1.721-.823,2.051-1.5.476-.981.378-1.886-.38-2.291-.944-.516-1.551.464-2.16,1.319l-.127.18c-.132.188-1.209,2.094-2.391,1.643C2191.564,1230.469,2191.313,1228.888,2192.173,1227.151Z" fill="#fff"/>
      <path id="Tracé_25" data-name="Tracé 25" d="M2191.916,1238.724c.107-.178.243-.462.15-.556a1.268,1.268,0,0,0-.622.045c-.259.109-.326.117-.406.157l-.073-.609a1.745,1.745,0,0,0,.4.08c.286.054.662.128.761,0a1.15,1.15,0,0,0-.242-.545c-.159-.23-.268-.458-.321-.534l.668-.13a4.59,4.59,0,0,0-.015.6c0,.219.1.493.19.512s.31-.2.463-.432.266-.353.306-.43l.432.494a4.585,4.585,0,0,0-.595.239c-.2.089-.514.334-.492.38a1.237,1.237,0,0,0,.474.273c.264.1.538.191.618.212l-.34.513c-.046-.072-.241-.233-.452-.478-.138-.152-.384-.315-.47-.279a1.79,1.79,0,0,0-.1.589c.008.254.013.435.027.507l-.624-.155C2191.713,1239.109,2191.767,1238.979,2191.916,1238.724Z" fill="#fff"/>
      <path id="Tracé_26" data-name="Tracé 26" d="M2180.51,1244.089l2.453-2.623c.3-.322.5-.488.806-.81.331-.354.513-.562.819-.94l.056.053a.741.741,0,0,0-.077.591,2.027,2.027,0,0,0,.4.556l3.255,3.043a1.438,1.438,0,0,0,.555.343,1.37,1.37,0,0,0,.467.021l.056.053a6.875,6.875,0,0,0-.675.647,6.482,6.482,0,0,0-.513.623l-.056-.053a.831.831,0,0,0-.019-.385,1.018,1.018,0,0,0-.347-.644l-3.35-2.978c-.492-.437-.821-.39-1.555.358-.858.879-1.752,2.152-1.525,3.264l-.06.051Z" fill="#fff"/>
      <path id="Tracé_27" data-name="Tracé 27" d="M2182.916,1248.1l.028-.084.056,0,.014.08a2.023,2.023,0,0,0,.181.658c.206.327.174.356.309.221a.456.456,0,0,1,.659.628.533.533,0,0,1-.776-.039A1.793,1.793,0,0,1,2182.916,1248.1Z" fill="#fff"/>
      <path id="Tracé_28" data-name="Tracé 28" d="M2173.438,1249.81l3.056-2.316c.331-.252.545-.37.876-.621.394-.3.629-.476.994-.8l.041.055a.818.818,0,0,0-.144.511c-.023.256.423.831.475.9l2.677,3.532a1.08,1.08,0,0,0,.422.256.906.906,0,0,0,.343.066l.048.062-4.354,3.3-.981-.679.1-.054.134.019a2.375,2.375,0,0,0,1.16-.119,13.831,13.831,0,0,0,2.693-1.792l.131-.1-1.673-2.207-1.663,1.26a1.962,1.962,0,0,0-.747.8,1.2,1.2,0,0,0-.033.687l-.069.053c-.174-.259-.288-.423-.476-.672s-.3-.388-.507-.625l.069-.053a1.208,1.208,0,0,0,.744.078,1.879,1.879,0,0,0,.878-.46l1.642-1.244-1.446-1.793c-.576-.7-.886-.382-1.573.117-1.7,1.236-2.253,2.229-2.232,3.146l-.072.076Zm6.9,4.12.386-.292-.045,1.588-.579.438Z" fill="#fff"/>
      <path id="Tracé_29" data-name="Tracé 29" d="M2168.843,1259.5a5.247,5.247,0,0,0,.1-1.037l-.146-6.033.1-.053,1.03.781,4.456,2.945a2.027,2.027,0,0,0,.549.235,1.488,1.488,0,0,0,.444.075l.037.069c-.394.182-.622.3-1,.51-.255.147-.407.229-.65.38l-.037-.069a.679.679,0,0,0,.1-.366.607.607,0,0,0-.238-.4l-4.491-2.867.157,4.633a1.252,1.252,0,0,0,.3.818.575.575,0,0,0,.546.138l.037.069s-.431.2-.7.347c-.29.155-.734.424-.734.424l-.037-.068A2.84,2.84,0,0,0,2168.843,1259.5Z" fill="#fff"/>
      <path id="Tracé_30" data-name="Tracé 30" d="M2158.667,1256.76l3.615-1.273c.392-.138.632-.186,1.023-.324.466-.164.743-.262,1.189-.455l.022.065a.824.824,0,0,0-.293.442c-.1.238.15.921.179,1l1.472,4.178a1.081,1.081,0,0,0,.324.372.865.865,0,0,0,.307.167l.025.074-5.149,1.815-.728-.946.112-.021.122.058a2.356,2.356,0,0,0,1.139.241,13.8,13.8,0,0,0,3.11-.885l.155-.055-.92-2.611-1.967.693a1.97,1.97,0,0,0-.957.539,1.2,1.2,0,0,0-.24.645l-.082.028c-.087-.3-.145-.49-.249-.784s-.172-.462-.291-.75l.081-.029a1.209,1.209,0,0,0,.684.3,1.877,1.877,0,0,0,.977-.169l1.942-.685-.83-2.148c-.334-.845-.728-.633-1.533-.367-2,.657-2.825,1.435-3.084,2.315l-.091.051Zm5.316,6.026.456-.16-.526,1.5-.686.242Z" fill="#fff"/>
      <path id="Tracé_31" data-name="Tracé 31" d="M2151.65,1264.6a1.645,1.645,0,0,0,.07-1.123l-.977-5.186.127-.024c.806.632,1.258,1.022,2.077,1.633,1.72,1.278,4.449,3.379,4.435,3.3l-.9-4.347a2.827,2.827,0,0,0-.44-1.026.974.974,0,0,0-.535-.225l-.021-.066c.3-.032.491-.058.788-.114.358-.067.568-.116.912-.207l.013.068a1.268,1.268,0,0,0-.357.393,2.542,2.542,0,0,0-.061,1.129l.794,4.165a.971.971,0,0,0,.346.48,3.544,3.544,0,0,0,.332.219l.015.077a5.708,5.708,0,0,0-.772.11,4.782,4.782,0,0,0-.6.148c-.192-.175-.318-.284-.518-.457-.264-.232-5.081-3.788-5.061-3.686l.7,3.549a2.539,2.539,0,0,0,.513,1,1.166,1.166,0,0,0,.454.257l.015.076a7.689,7.689,0,0,0-.884.123,5.641,5.641,0,0,0-.741.184l-.014-.077A.863.863,0,0,0,2151.65,1264.6Z" fill="#fff"/>
      <path id="Tracé_32" data-name="Tracé 32" d="M2142.9,1258.862l3.832-.136c.415-.015.658.011,1.074,0,.492-.017.787-.027,1.27-.079l0,.069a.822.822,0,0,0-.412.335c-.166.2-.132.923-.129,1.009l.157,4.429a1.1,1.1,0,0,0,.2.452.9.9,0,0,0,.243.251l0,.078-5.458.194-.413-1.12.114.013.1.091a2.366,2.366,0,0,0,1.016.571,13.808,13.808,0,0,0,3.234.084l.164-.006-.1-2.768-2.085.074a1.958,1.958,0,0,0-1.074.229,1.194,1.194,0,0,0-.422.543l-.095,0c.014-.312.016-.511.005-.823s-.027-.493-.064-.8l.1,0a1.229,1.229,0,0,0,.554.492,1.946,1.946,0,0,0,.992.129l2.059-.073-.151-2.3c-.067-.908-.5-.822-1.354-.81-2.1.032-3.125.527-3.635,1.29l-.1.021Z" fill="#fff"/>
      <path id="Tracé_33" data-name="Tracé 33" d="M2134.384,1258.078c.309.038.49.051.8.064l-.009.069a.929.929,0,0,0-.421.3,2.128,2.128,0,0,0-.245.65l-.5,4.841,3.477-5.573.111.013,2.065,6.186.521-4.377a1.628,1.628,0,0,0-.2-1.131,1.291,1.291,0,0,0-.305-.352v-.07a6.844,6.844,0,0,0,.708.122c.362.044.577.062.941.081l-.008.069a1.292,1.292,0,0,0-.472.291,2.6,2.6,0,0,0-.423,1.029l-.456,4.061a1.5,1.5,0,0,0,.148.716,1.35,1.35,0,0,0,.232.308l-.01.077c-.315-.065-.435-.079-.71-.114-.232-.028-.405-.04-.6-.047l-1.948-5.717-3.173,5.087a4.074,4.074,0,0,0-.494-.095,4.181,4.181,0,0,0-.666-.047l.01-.078c.045-.02.126-.037.283-.244a1.2,1.2,0,0,0,.194-.447l.429-4.692a1.736,1.736,0,0,0-.155-.726,1.06,1.06,0,0,0-.287-.358v-.07C2133.67,1257.991,2133.936,1258.023,2134.384,1258.078Z" fill="#fff"/>
      <path id="Tracé_34" data-name="Tracé 34" d="M2126.3,1255.909l3.681,1.072c.4.116.622.217,1.02.334.474.137.756.219,1.231.322l-.019.066a.831.831,0,0,0-.5.189c-.22.135-.415.835-.439.918l-1.24,4.254a1.081,1.081,0,0,0,.046.491.907.907,0,0,0,.152.315l-.022.075-5.242-1.528-.04-1.192.1.048.065.118a2.366,2.366,0,0,0,.786.859,13.712,13.712,0,0,0,3.044,1.095l.158.046.775-2.659-2-.583a1.949,1.949,0,0,0-1.092-.12,1.2,1.2,0,0,0-.571.383l-.092-.027c.112-.291.176-.48.264-.779s.129-.476.192-.783l.091.027a1.24,1.24,0,0,0,.372.641,1.951,1.951,0,0,0,.9.433l1.978.576.577-2.229c.221-.882-.222-.939-1.031-1.193-2.007-.63-3.133-.48-3.856.085l-.1-.013Z" fill="#fff"/>
      <path id="Tracé_35" data-name="Tracé 35" d="M2115.971,1258.175a1.644,1.644,0,0,0,.711-.871l2.226-4.784.117.054c.287.983.427,1.563.737,2.537.653,2.041,1.649,5.337,1.681,5.266l1.8-4.056a2.833,2.833,0,0,0,.24-1.09.975.975,0,0,0-.3-.494l.022-.067c.263.151.432.239.707.367.329.154.528.237.861.363l-.029.063a1.27,1.27,0,0,0-.52.111,2.541,2.541,0,0,0-.706.883l-1.78,3.847a.977.977,0,0,0,0,.591c.051.138.114.33.142.372l-.032.07a5.924,5.924,0,0,0-.691-.36,5.027,5.027,0,0,0-.572-.227c-.053-.254-.093-.416-.154-.673-.08-.342-1.924-6.036-1.967-5.943l-1.5,3.29a2.523,2.523,0,0,0-.162,1.107,1.133,1.133,0,0,0,.218.474l-.033.07a7.4,7.4,0,0,0-.79-.414,5.653,5.653,0,0,0-.707-.283l.032-.07A.864.864,0,0,0,2115.971,1258.175Z" fill="#fff"/>
      <path id="Tracé_36" data-name="Tracé 36" d="M2108.767,1252.537a2.685,2.685,0,0,0,1.166,2.008c.288.192.689.418.876.138l2.721-4.072a.984.984,0,0,0,.2-.72,1,1,0,0,0-.244-.538l.039-.057c.309.237.556.413.916.653.381.255.566.368.99.62l-.038.058a.935.935,0,0,0-.624,0,1.142,1.142,0,0,0-.538.463l-2.731,4.086c-.149.224.17.541.455.721a2.806,2.806,0,0,0,2.388.368l.122.081-1.042.844-5.159-3.447.424-1.257Z" fill="#fff"/>
      <path id="Tracé_37" data-name="Tracé 37" d="M2103,1247.457c.155.138.411.322.52.246a1.28,1.28,0,0,0,.065-.62c-.061-.274-.057-.342-.083-.427l.613.035a1.709,1.709,0,0,0-.151.383c-.1.271-.243.63-.129.75a1.16,1.16,0,0,0,.578-.142c.255-.116.5-.183.583-.222l.009.68a4.446,4.446,0,0,0-.59-.121c-.216-.039-.5.012-.536.1s.142.34.342.531.3.324.37.378l-.561.338a5.119,5.119,0,0,0-.131-.628c-.054-.207-.24-.564-.289-.551a1.266,1.266,0,0,0-.351.418c-.148.243-.282.5-.317.571l-.446-.424c.08-.032.272-.2.55-.362.175-.108.378-.321.358-.412a1.77,1.77,0,0,0-.563-.2,4.877,4.877,0,0,0-.5-.061l.262-.588C2102.652,1247.19,2102.77,1247.267,2103,1247.457Z" fill="#fff"/>
      <path id="Tracé_38" data-name="Tracé 38" d="M2101.464,1237.617l.327.446c.322.44.45.732.78,1.166a10.512,10.512,0,0,0,.756.916l-.062.046a.9.9,0,0,0-.48-.142,1.334,1.334,0,0,0-.657.245l-3.722,2.738a1.243,1.243,0,0,0-.387.51,1.123,1.123,0,0,0-.041.384l-.063.046-2.009-2.743c-1.321-1.8-1.065-3.736.378-4.826C2098.219,1234.931,2100.242,1235.949,2101.464,1237.617Zm-4.952,4.133.808,1.1,4.226-3.28c.6-.459.44-.848-.17-1.667-1.2-1.609-2.383-2.168-4.363-.728C2094.788,1238.8,2095.356,1240.173,2096.512,1241.75Z" fill="#fff"/>
      <path id="Tracé_39" data-name="Tracé 39" d="M2095.56,1227.807l1.773,3.4c.192.368.273.6.465.967.228.438.364.7.619,1.112l-.061.032a.828.828,0,0,0-.481-.228c-.248-.065-.889.278-.966.318l-3.928,2.049a1.1,1.1,0,0,0-.323.373.881.881,0,0,0-.121.327l-.069.036-2.525-4.841.833-.854.037.108-.041.128a2.371,2.371,0,0,0-.077,1.163,13.821,13.821,0,0,0,1.316,2.954l.076.145,2.455-1.28-.964-1.849a1.955,1.955,0,0,0-.669-.871,1.215,1.215,0,0,0-.672-.148l-.044-.084c.289-.121.469-.2.745-.349s.433-.236.7-.4l.045.084a1.23,1.23,0,0,0-.206.712,1.947,1.947,0,0,0,.311.951l.952,1.826,2.009-1.126c.79-.45.524-.81.147-1.57-.934-1.884-1.82-2.592-2.728-2.724l-.063-.085Z" fill="#fff"/>
      <path id="Tracé_40" data-name="Tracé 40" d="M2088.078,1222.864c.071.195.207.478.339.463a1.264,1.264,0,0,0,.353-.513c.077-.27.114-.326.131-.414l.522.324a1.713,1.713,0,0,0-.315.264c-.221.189-.515.437-.473.6a1.168,1.168,0,0,0,.576.152c.279.019.524.077.617.083l-.317.6a4.679,4.679,0,0,0-.46-.388c-.171-.136-.446-.23-.518-.17s-.037.365.047.63.11.427.145.507l-.655.028a4.786,4.786,0,0,0,.186-.613,1.267,1.267,0,0,0,.01-.622,1.246,1.246,0,0,0-.508.2c-.246.142-.486.3-.552.349l-.187-.586c.085.01.331-.042.654-.054.2-.012.486-.1.512-.191a1.812,1.812,0,0,0-.4-.446,4.8,4.8,0,0,0-.411-.294l.51-.391C2087.905,1222.464,2087.971,1222.589,2088.078,1222.864Z" fill="#fff"/>
      <path id="Tracé_41" data-name="Tracé 41" d="M2091.045,1210.587l.5,3.556c.061.438.063.7.125,1.137.067.479.114.753.216,1.228l-.077.01a.738.738,0,0,0-.411-.432,2.031,2.031,0,0,0-.686-.034l-4.414.621a1.459,1.459,0,0,0-.616.217,1.394,1.394,0,0,0-.309.349l-.077.011a6.668,6.668,0,0,0-.079-.932,6.288,6.288,0,0,0-.163-.79l.077-.011a.833.833,0,0,0,.312.227,1.013,1.013,0,0,0,.718.135l4.423-.735c.649-.109.819-.4.7-1.436-.146-1.22-.574-2.716-1.583-3.238l0-.079Z" fill="#fff"/>
      <path id="Tracé_42" data-name="Tracé 42" d="M2084.783,1202.569a1.8,1.8,0,0,0,.837.178l3.026.126a2.471,2.471,0,0,1,2.424,2.668c.016,3.374-2.232,3.252-2.405,3.25l-3.6-.057a.967.967,0,0,0-.469.071.812.812,0,0,0-.281.289h-.078s.043-.5.048-.821-.022-.814-.022-.814h.078c.025.044.058.122.273.264a1.112,1.112,0,0,0,.464.163l3.452.012a2.169,2.169,0,0,0,2.3-2.4,2.261,2.261,0,0,0-2.342-2.4l-2.811-.027a1.809,1.809,0,0,0-1,.27,1.559,1.559,0,0,0-.283.368l-.078,0s.034-.475.038-.769-.013-.779-.013-.779l.078,0A1.089,1.089,0,0,0,2084.783,1202.569Z" fill="#fff"/>
      <path id="Tracé_43" data-name="Tracé 43" d="M2091.852,1195.515c-.062.4-.1.641-.128,1.049l-.068-.011a.445.445,0,0,0-.311-.25,1.378,1.378,0,0,0-.712.186l-2.117,1.055,1.242,1.305a1.939,1.939,0,0,0,1.084.685.436.436,0,0,0,.391-.264l.069.011c-.082.355-.124.568-.181.935-.048.308-.069.5-.092.818l-.069-.011a4.009,4.009,0,0,0-.266-.593,5.889,5.889,0,0,0-.558-.691l-1.844-2.1-2.281,1.212a10.124,10.124,0,0,0-.948.579c-.177.122-.425.311-.456.341l-.077-.012a6.266,6.266,0,0,0,.19-.881,7.667,7.667,0,0,0,.1-.983l.077.013c.011.045.007.123.219.279.313.241.948-.185,1.014-.219l1.668-.87-1.3-1.392c-.053-.053-.554-.6-.926-.459-.251.091-.271.167-.295.207l-.078-.012c.075-.312.113-.5.163-.815s.068-.5.091-.809l.076.012c.02.038.257.434.346.588a8.267,8.267,0,0,0,.68.92l1.463,1.628,2.782-1.563a4.186,4.186,0,0,0,.764-.581,5.432,5.432,0,0,0,.42-.39l.069.011C2091.965,1194.85,2091.918,1195.1,2091.852,1195.515Z" fill="#fff"/>
      <path id="Tracé_44" data-name="Tracé 44" d="M2094.128,1187.489l-1.138,3.66c-.124.4-.228.618-.352,1.015-.146.471-.234.752-.344,1.225l-.066-.021a.828.828,0,0,0-.181-.5c-.13-.222-.827-.429-.909-.454l-4.231-1.315a1.067,1.067,0,0,0-.491.037.888.888,0,0,0-.318.146l-.075-.023,1.621-5.215,1.193-.019-.049.1-.12.063a2.36,2.36,0,0,0-.873.77,13.807,13.807,0,0,0-1.149,3.023l-.049.157,2.645.822.619-1.991a1.96,1.96,0,0,0,.139-1.089,1.2,1.2,0,0,0-.373-.579l.028-.091c.29.117.478.185.775.277s.474.139.779.206l-.029.091a1.234,1.234,0,0,0-.647.361,1.938,1.938,0,0,0-.449.893l-.611,1.967,2.218.617c.878.237.943-.206,1.211-1.01.666-2,.536-3.123-.015-3.856l.014-.1Z" fill="#fff"/>
      <path id="Tracé_45" data-name="Tracé 45" d="M2094.011,1175.7c-.1.184-.219.474-.12.562a1.274,1.274,0,0,0,.618-.078c.252-.122.318-.133.4-.178l.106.6a1.743,1.743,0,0,0-.408-.059c-.288-.039-.668-.092-.759.046-.031.052.134.369.271.53.171.221.291.442.348.516l-.659.165a4.546,4.546,0,0,0-.017-.6c-.012-.218-.126-.486-.218-.5s-.3.216-.438.454-.246.368-.282.446l-.457-.469a4.77,4.77,0,0,0,.581-.271c.189-.1.493-.361.469-.4a1.227,1.227,0,0,0-.487-.247c-.269-.088-.547-.162-.628-.179l.312-.529c.05.069.253.219.478.451.144.146.4.295.483.254a1.784,1.784,0,0,0,.067-.592,5.064,5.064,0,0,0-.055-.5l.631.121C2094.192,1175.305,2094.144,1175.438,2094.011,1175.7Z" fill="#fff"/>
    </g>
  </g>
</svg>
