<svg xmlns="http://www.w3.org/2000/svg" width="123.657" height="124.183" viewBox="0 0 123.657 124.183">
  <g id="Groupe_7" data-name="Groupe 7" transform="translate(-2032.972 -3203.816)">
    <path id="Tracé_46" data-name="Tracé 46" d="M2127.6,3313.068h0a8.887,8.887,0,0,0-13.544,6.793h0c-.771,9.035-12.988,11.249-16.881,3.06h0a8.887,8.887,0,0,0-15.067-1.608h0c-5.533,7.184-17.008,2.441-15.855-6.553h0a8.887,8.887,0,0,0-11.806-9.5h0c-8.538,3.052-15.628-7.142-9.8-14.085h0a8.887,8.887,0,0,0-4.8-14.373h0c-8.833-2.049-9.286-14.457-.625-17.144h0a8.887,8.887,0,0,0,3.735-14.685h0c-6.323-6.5,0-17.182,8.743-14.761h0a8.887,8.887,0,0,0,11.082-10.334h0c-1.806-8.886,9.293-14.453,15.335-7.692h0a8.886,8.886,0,0,0,14.909-2.7h0c3.286-8.451,15.632-7.134,17.059,1.821h0a8.887,8.887,0,0,0,14,5.787h0c7.333-5.333,17.007,2.45,13.367,10.755h0a8.886,8.886,0,0,0,8.651,12.439h0c9.053-.522,12.983,11.256,5.431,16.274h0a8.887,8.887,0,0,0,.553,15.142h0c7.9,4.455,4.836,16.488-4.23,16.627h0a8.886,8.886,0,0,0-7.721,13.037h0C2144.379,3309.385,2135.3,3317.853,2127.6,3313.068Z" fill="#576d5d"/>
    <path id="Tracé_47" data-name="Tracé 47" d="M2117.639,3315.3h0a3.622,3.622,0,0,0-6.488,2.631h0a3.622,3.622,0,0,1-6.953,1.808h0a3.622,3.622,0,0,0-6.948.863h0a3.622,3.622,0,0,1-7.184-.053h0a3.622,3.622,0,0,0-6.935-.966h0a3.622,3.622,0,0,1-6.925-1.91h0a3.622,3.622,0,0,0-6.448-2.727h0a3.622,3.622,0,0,1-6.2-3.638h0a3.622,3.622,0,0,0-5.523-4.3h0a3.623,3.623,0,0,1-5.043-5.118h0a3.622,3.622,0,0,0-4.221-5.586h0a3.622,3.622,0,0,1-3.546-6.248h0a3.622,3.622,0,0,0-2.632-6.488h0a3.622,3.622,0,0,1-1.808-6.953h0a3.622,3.622,0,0,0-.862-6.948h0a3.621,3.621,0,0,1,.053-7.183h0a3.622,3.622,0,0,0,.965-6.935h0a3.622,3.622,0,0,1,1.91-6.925h0a3.623,3.623,0,0,0,2.728-6.449h0a3.622,3.622,0,0,1,3.638-6.2h0a3.622,3.622,0,0,0,4.3-5.523h0a3.622,3.622,0,0,1,5.117-5.042h0a3.622,3.622,0,0,0,5.586-4.221h0a3.622,3.622,0,0,1,6.248-3.546h0a3.622,3.622,0,0,0,6.488-2.631h0a3.622,3.622,0,0,1,6.953-1.808h0a3.622,3.622,0,0,0,6.948-.863h0a3.622,3.622,0,0,1,7.184.053h0a3.622,3.622,0,0,0,6.934.965h0a3.622,3.622,0,0,1,6.926,1.911h0a3.622,3.622,0,0,0,6.448,2.727h0a3.622,3.622,0,0,1,6.2,3.638h0a3.622,3.622,0,0,0,5.523,4.3h0a3.622,3.622,0,0,1,5.042,5.118h0a3.622,3.622,0,0,0,4.221,5.585h0a3.622,3.622,0,0,1,3.546,6.248h0a3.622,3.622,0,0,0,2.631,6.488h0a3.622,3.622,0,0,1,1.808,6.952h0a3.622,3.622,0,0,0,.862,6.948h0a3.622,3.622,0,0,1-.053,7.184h0a3.622,3.622,0,0,0-.965,6.935h0a3.622,3.622,0,0,1-1.911,6.925h0a3.622,3.622,0,0,0-2.727,6.449h0a3.622,3.622,0,0,1-3.638,6.2h0a3.622,3.622,0,0,0-4.3,5.522h0a3.622,3.622,0,0,1-5.117,5.042h0a3.622,3.622,0,0,0-5.586,4.221h0A3.622,3.622,0,0,1,2117.639,3315.3Z" fill="#576d5d"/>
    <g id="Groupe_5" data-name="Groupe 5">
      <path id="Tracé_48" data-name="Tracé 48" d="M2071.181,3240.419l-1.55,1.514c-.168.164-.279.245-.447.41-.2.194-.318.31-.5.516l-.027-.028a.461.461,0,0,0,.045-.3c0-.146-.3-.436-.33-.471l-1.75-1.791a.6.6,0,0,0-.254-.114.524.524,0,0,0-.2-.013l-.031-.031,2.208-2.156.6.311-.052.038h-.076a1.33,1.33,0,0,0-.642.148,7.763,7.763,0,0,0-1.384,1.194l-.066.065,1.093,1.119.844-.823a1.109,1.109,0,0,0,.362-.5.679.679,0,0,0-.03-.388l.038-.037c.113.136.188.22.311.346s.2.2.332.311l-.039.038a.689.689,0,0,0-.419.006,1.09,1.09,0,0,0-.463.322l-.833.813.937.9c.373.354.524.152.874-.176.867-.813,1.1-1.409,1.029-1.921l.035-.048Z" fill="#fff"/>
      <path id="Tracé_49" data-name="Tracé 49" d="M2072.81,3234.679a.917.917,0,0,0,.245.586l1.793,2.385-.059.044c-.566-.119-.893-.2-1.462-.308-1.191-.218-3.1-.6-3.074-.565l1.543,1.979a1.6,1.6,0,0,0,.48.41.55.55,0,0,0,.328-.02l.027.029a4.442,4.442,0,0,0-.371.255c-.164.123-.259.2-.411.332l-.023-.031a.718.718,0,0,0,.083-.289,1.448,1.448,0,0,0-.252-.587l-1.445-1.913a.551.551,0,0,0-.295-.157c-.082-.011-.2-.031-.223-.028l-.027-.035a3.235,3.235,0,0,0,.364-.249,2.576,2.576,0,0,0,.265-.224c.141.041.232.064.377.1.192.051,3.524.649,3.488.6l-1.24-1.625a1.436,1.436,0,0,0-.509-.376.652.652,0,0,0-.3-.017l-.026-.036a4.046,4.046,0,0,0,.417-.283,3.132,3.132,0,0,0,.329-.278l.027.035A.489.489,0,0,0,2072.81,3234.679Z" fill="#fff"/>
      <path id="Tracé_50" data-name="Tracé 50" d="M2079.232,3231.2a2.887,2.887,0,0,0-.079.583l-.053,3.413-.057.027-.564-.464-2.452-1.763a1.177,1.177,0,0,0-.305-.145.812.812,0,0,0-.249-.053l-.02-.039c.227-.094.359-.159.578-.266.148-.078.236-.121.376-.2l.019.039a.393.393,0,0,0-.063.205.346.346,0,0,0,.125.233l2.474,1.72.015-2.621a.7.7,0,0,0-.154-.469.326.326,0,0,0-.3-.09l-.019-.04s.248-.1.4-.18.424-.224.424-.224l.019.04A1.509,1.509,0,0,0,2079.232,3231.2Z" fill="#fff"/>
      <path id="Tracé_51" data-name="Tracé 51" d="M2083.351,3233.512a2.053,2.053,0,0,1-2.654-1.2,2.007,2.007,0,0,1,1.4-2.523,1.968,1.968,0,1,1,1.251,3.727Zm-1.228-3.642c-1.061.342-1.173,1.369-.877,2.26s1.013,1.663,2.063,1.288c1.069-.382,1.1-1.311.851-2.18C2083.878,3230.265,2083.118,3229.544,2082.123,3229.87Z" fill="#fff"/>
      <path id="Tracé_52" data-name="Tracé 52" d="M2086.569,3232.486c-.215.049-.338.082-.549.146l-.009-.039a.472.472,0,0,0,.171-.239.77.77,0,0,0,0-.391l-.573-2.6a.619.619,0,0,0-.14-.239.846.846,0,0,0-.164-.124l-.01-.042a2.6,2.6,0,0,0,.431-.069,2.768,2.768,0,0,0,.389-.119l.01.043a.708.708,0,0,0-.089.181.681.681,0,0,0,0,.272l.616,2.588a1.025,1.025,0,0,0,.193.362.677.677,0,0,0,.227.134l.008.038C2086.879,3232.42,2086.764,3232.442,2086.569,3232.486Z" fill="#fff"/>
      <path id="Tracé_53" data-name="Tracé 53" d="M2090.881,3231.788l-.069-.109c-.229-.35-.56-1.249-.911-1.444-.325-.179-.5-.151-1.478-.022l-.194.026.229,1.248a1.052,1.052,0,0,0,.144.38c.141.134.2.142.252.15l0,.038c-.2.012-.317.023-.511.048-.242.033-.382.056-.623.1l-.005-.038a.565.565,0,0,0,.192-.223,1.412,1.412,0,0,0,.052-.392l-.339-2.526a.724.724,0,0,0-.151-.36.959.959,0,0,0-.137-.14l-.006-.043,1.664-.22c.765-.1,1.758-.129,1.859.7.068.554-.464.821-.867.949l-.231.075.22.064a1.18,1.18,0,0,1,.673.35,11.2,11.2,0,0,0,.742,1.1,2.043,2.043,0,0,0,.252.15l0,.038Zm-2.509-3.3-.378.05.2,1.562,1.072-.141c.893-.119,1.084-.568,1.014-.954C2090.131,3228.25,2089.662,3228.318,2088.372,3228.488Z" fill="#fff"/>
      <path id="Tracé_54" data-name="Tracé 54" d="M2095.814,3229.935a5.131,5.131,0,0,1-.679-.041l-.2-.028v1.077a.816.816,0,0,0,.1.474.631.631,0,0,0,.246.193l0,.039c-.2-.024-.331-.035-.541-.044-.254-.012-.4-.014-.656-.011l0-.039a.47.47,0,0,0,.253-.184.954.954,0,0,0,.1-.382l.121-2.654a.575.575,0,0,0-.08-.268.59.59,0,0,0-.184-.165l0-.044,1.593.073c.767.035,1.829.27,1.838,1.039C2097.73,3229.783,2096.583,3229.936,2095.814,3229.935Zm-.53-1.889-.284-.014-.056,1.668.13.035a3.6,3.6,0,0,0,.609.067c.992.046,1.527-.3,1.5-.857C2097.131,3228.013,2096.1,3228.083,2095.284,3228.046Z" fill="#fff"/>
      <path id="Tracé_55" data-name="Tracé 55" d="M2101.669,3232.387l-2-.337c-.245-.042-.387-.086-.632-.127-.27-.046-.425-.067-.7-.093l.007-.043a.416.416,0,0,0,.3-.148,1.12,1.12,0,0,0,.136-.363l.419-2.483a.817.817,0,0,0-.012-.368.785.785,0,0,0-.136-.227l.008-.043a3.681,3.681,0,0,0,.515.117,3.569,3.569,0,0,0,.453.047l-.007.043a.469.469,0,0,0-.176.129.576.576,0,0,0-.194.364l-.359,2.507c-.052.368.073.508.653.62a2.369,2.369,0,0,0,2.014-.3l.042.012Z" fill="#fff"/>
      <path id="Tracé_56" data-name="Tracé 56" d="M2107,3230.273a1.022,1.022,0,0,0-.227.426l-.538,1.625a1.4,1.4,0,0,1-1.826.9c-1.835-.516-1.42-1.717-1.392-1.811l.59-1.946a.556.556,0,0,0,.035-.265.467.467,0,0,0-.114-.2l.012-.042s.266.1.439.153.446.115.446.115l-.013.042a.385.385,0,0,0-.186.107.618.618,0,0,0-.16.227l-.543,1.873a1.225,1.225,0,0,0,.948,1.626,1.277,1.277,0,0,0,1.667-.9l.451-1.523a1.023,1.023,0,0,0,.009-.584.873.873,0,0,0-.156-.211l.013-.042s.253.092.412.14.425.114.425.114l-.013.042A.607.607,0,0,0,2107,3230.273Z" fill="#fff"/>
      <path id="Tracé_57" data-name="Tracé 57" d="M2108.3,3234.617a4.2,4.2,0,0,1-1.235-.937l-.074-.086.447-.475.019.041-.006.05c-.118.66.6,1.172,1.042,1.381s1.173.272,1.426-.305c.238-.558-.341-.854-.813-1.187l-.131-.091c-.51-.356-1.048-.827-.77-1.4.365-.758,1.213-.668,1.832-.375a4.27,4.27,0,0,1,1.157.848l.055.068-.389.441-.035-.042.011-.049c.107-.54-.465-.973-.847-1.159-.554-.269-1.065-.214-1.294.214-.292.533.261.876.744,1.22l.1.073c.106.074,1.183.682.927,1.35C2110.172,3234.961,2109.279,3235.1,2108.3,3234.617Z" fill="#fff"/>
      <path id="Tracé_58" data-name="Tracé 58" d="M2116.438,3235.791c-.1-.064-.256-.145-.311-.094a.72.72,0,0,0,.015.352c.057.147.06.185.082.231l-.345.031a.977.977,0,0,0,.052-.226c.036-.16.084-.372.011-.43a.657.657,0,0,0-.312.127c-.132.086-.263.144-.307.173l-.061-.379a2.778,2.778,0,0,0,.339.019c.124,0,.279-.049.292-.1s-.108-.178-.236-.268-.2-.156-.237-.18l.285-.235a2.8,2.8,0,0,0,.125.34c.048.111.181.295.207.284a.73.73,0,0,0,.161-.263c.063-.147.117-.3.131-.345l.283.2c-.042.025-.135.132-.277.247-.088.075-.184.211-.165.26a.975.975,0,0,0,.33.066,2.614,2.614,0,0,0,.286-.007l-.1.35C2116.652,3235.912,2116.579,3235.879,2116.438,3235.791Z" fill="#fff"/>
      <path id="Tracé_59" data-name="Tracé 59" d="M2119.4,3242.308l-1.57-1.494c-.17-.162-.256-.27-.426-.432-.2-.192-.323-.307-.534-.482l.027-.028a.463.463,0,0,0,.3.034c.145-.01.425-.311.458-.347l1.727-1.814a.616.616,0,0,0,.1-.259.512.512,0,0,0,.006-.2l.03-.032,2.236,2.128-.289.609-.039-.051,0-.076a1.342,1.342,0,0,0-.172-.636,7.8,7.8,0,0,0-1.244-1.339l-.067-.064-1.079,1.134.853.812a1.115,1.115,0,0,0,.518.344.68.68,0,0,0,.386-.044l.039.037a5.517,5.517,0,0,0-.634.666l-.039-.037a.692.692,0,0,0-.021-.418,1.1,1.1,0,0,0-.339-.452l-.844-.8-.868.969c-.34.386-.133.529.208.867.844.837,1.448,1.054,1.958.958l.049.034Z" fill="#fff"/>
      <path id="Tracé_60" data-name="Tracé 60" d="M2125.189,3243.739a.929.929,0,0,0-.577.266l-2.316,1.875-.046-.057c.1-.57.171-.9.255-1.47.175-1.2.489-3.117.454-3.09l-1.92,1.611a1.633,1.633,0,0,0-.393.494.559.559,0,0,0,.032.327l-.027.028c-.1-.142-.16-.229-.268-.362-.129-.159-.21-.251-.347-.4l.03-.025a.718.718,0,0,0,.292.072,1.434,1.434,0,0,0,.577-.272l1.858-1.51a.545.545,0,0,0,.146-.3,2,2,0,0,0,.02-.224l.034-.027a3.252,3.252,0,0,0,.262.354,2.829,2.829,0,0,0,.233.257c-.036.142-.056.234-.089.38-.044.193-.522,3.54-.476,3.5l1.578-1.3a1.445,1.445,0,0,0,.357-.522.664.664,0,0,0,.007-.294l.034-.028a4.119,4.119,0,0,0,.3.406,3.091,3.091,0,0,0,.289.319l-.034.028A.485.485,0,0,0,2125.189,3243.739Z" fill="#fff"/>
      <path id="Tracé_61" data-name="Tracé 61" d="M2128.9,3250.033a2.957,2.957,0,0,0-.586-.058l-3.41.071-.03-.056.443-.581,1.673-2.513a1.156,1.156,0,0,0,.133-.31.816.816,0,0,0,.044-.251l.039-.02c.1.222.171.352.287.567.082.145.128.231.213.369l-.039.02a.383.383,0,0,0-.207-.055.342.342,0,0,0-.228.133l-1.628,2.533,2.618-.08a.708.708,0,0,0,.463-.17.325.325,0,0,0,.079-.308l.039-.021s.114.244.2.4.239.416.239.416l-.039.021A1.586,1.586,0,0,0,2128.9,3250.033Z" fill="#fff"/>
      <path id="Tracé_62" data-name="Tracé 62" d="M2126.732,3254.223a2.051,2.051,0,0,1,1.108-2.694,2.006,2.006,0,0,1,2.571,1.311,1.967,1.967,0,1,1-3.679,1.383Zm3.595-1.357a1.612,1.612,0,0,0-2.29-.795c-.884.33-1.625,1.071-1.212,2.107.419,1.053,1.348,1.056,2.208.773C2130,3254.634,2130.688,3253.848,2130.327,3252.866Z" fill="#fff"/>
      <path id="Tracé_63" data-name="Tracé 63" d="M2127.879,3257.413c-.056-.213-.094-.334-.165-.543l.038-.01a.481.481,0,0,0,.245.162.761.761,0,0,0,.39-.018l2.574-.667a.615.615,0,0,0,.234-.148.837.837,0,0,0,.117-.168l.042-.012a2.661,2.661,0,0,0,.084.428,2.777,2.777,0,0,0,.133.385l-.042.011a.723.723,0,0,0-.184-.082.683.683,0,0,0-.272.006l-2.562.71a.991.991,0,0,0-.355.206.665.665,0,0,0-.126.231l-.038.01C2127.956,3257.721,2127.931,3257.606,2127.879,3257.413Z" fill="#fff"/>
      <path id="Tracé_64" data-name="Tracé 64" d="M2128.732,3261.7l.107-.072c.34-.241,1.226-.6,1.408-.961.168-.331.134-.5-.031-1.477l-.032-.193-1.238.273a1.055,1.055,0,0,0-.375.158c-.129.145-.134.206-.14.256l-.038.007c-.019-.2-.034-.317-.066-.509-.041-.241-.07-.38-.124-.619l.038-.006a.567.567,0,0,0,.229.184,1.461,1.461,0,0,0,.393.038l2.51-.429a.714.714,0,0,0,.354-.164.9.9,0,0,0,.135-.141l.043-.008.28,1.653c.128.762.191,1.752-.635,1.882-.55.088-.837-.434-.978-.831l-.083-.229-.057.222a1.164,1.164,0,0,1-.325.685c-.364.314-.939.574-1.068.78a1.945,1.945,0,0,0-.14.257l-.039.006Zm3.205-2.622-.063-.376-1.553.257.18,1.065c.149.887.6,1.063.988.978C2132.237,3260.831,2132.153,3260.364,2131.937,3259.082Z" fill="#fff"/>
      <path id="Tracé_65" data-name="Tracé 65" d="M2130.755,3266.567a5.146,5.146,0,0,1,.022-.68l.022-.2-1.076.031a.811.811,0,0,0-.471.11.631.631,0,0,0-.185.251h-.039c.018-.2.025-.332.029-.542,0-.254,0-.4-.009-.655h.039a.461.461,0,0,0,.192.247.949.949,0,0,0,.384.09l2.654.044a.572.572,0,0,0,.265-.088.612.612,0,0,0,.16-.188h.044l-.027,1.592c-.013.768-.217,1.835-.985,1.866C2130.963,3268.476,2130.777,3267.334,2130.755,3266.567Zm1.872-.585.005-.283-1.667-.009-.031.132a3.581,3.581,0,0,0-.05.61c-.016.992.342,1.516.9,1.472C2132.714,3267.826,2132.613,3266.8,2132.627,3265.982Z" fill="#fff"/>
      <path id="Tracé_66" data-name="Tracé 66" d="M2128.513,3272.5l.266-2.012c.033-.247.071-.39.1-.637.036-.272.052-.428.068-.7l.044.006a.413.413,0,0,0,.158.3,1.135,1.135,0,0,0,.369.123l2.5.33a.815.815,0,0,0,.368-.025.781.781,0,0,0,.222-.143l.043,0a3.887,3.887,0,0,0-.1.52,3.4,3.4,0,0,0-.03.455l-.044-.006a.468.468,0,0,0-.136-.17.572.572,0,0,0-.37-.183l-2.521-.269c-.369-.039-.5.091-.6.675a2.369,2.369,0,0,0,.372,2l-.011.043Z" fill="#fff"/>
      <path id="Tracé_67" data-name="Tracé 67" d="M2130.816,3277.769a1.019,1.019,0,0,0-.435-.211l-1.644-.482a1.4,1.4,0,0,1-.967-1.794c.451-1.855,1.668-1.482,1.763-1.457l1.967.521a.55.55,0,0,0,.267.026.474.474,0,0,0,.194-.121l.043.011s-.092.27-.138.444-.1.45-.1.45l-.042-.011a.378.378,0,0,0-.114-.182.623.623,0,0,0-.233-.153l-1.893-.477a1.227,1.227,0,0,0-1.593,1.006,1.279,1.279,0,0,0,.959,1.636l1.539.4a1.028,1.028,0,0,0,.586-.012.928.928,0,0,0,.2-.163l.042.011s-.083.256-.125.417-.1.43-.1.43l-.042-.012A.634.634,0,0,0,2130.816,3277.769Z" fill="#fff"/>
      <path id="Tracé_68" data-name="Tracé 68" d="M2126.518,3279.215a4.236,4.236,0,0,1,.893-1.27l.084-.077.491.431-.04.021-.051-.005c-.664-.094-1.152.643-1.344,1.092s-.231,1.184.356,1.416c.566.219.842-.372,1.159-.855l.086-.134c.338-.523.79-1.079,1.377-.821.771.338.711,1.191.441,1.82a4.331,4.331,0,0,1-.808,1.188l-.066.058-.456-.374.041-.036.05.009c.544.088.956-.5,1.13-.889.249-.564.176-1.074-.26-1.288-.544-.273-.868.293-1.2.789l-.068.1c-.07.109-.642,1.208-1.319.976C2126.24,3281.1,2126.066,3280.214,2126.518,3279.215Z" fill="#fff"/>
      <path id="Tracé_69" data-name="Tracé 69" d="M2125.648,3287.368c.06-.1.136-.261.082-.313a.719.719,0,0,0-.351.027c-.145.062-.183.066-.228.09l-.043-.344a.954.954,0,0,0,.228.044c.161.03.375.07.43,0a.664.664,0,0,0-.138-.307c-.091-.13-.153-.258-.183-.3l.376-.075a2.569,2.569,0,0,0-.007.34c0,.124.058.278.11.288s.173-.114.259-.244.149-.2.172-.245l.245.278a2.738,2.738,0,0,0-.335.137c-.11.051-.289.19-.276.216a.7.7,0,0,0,.268.152c.149.057.3.106.349.118l-.19.29c-.026-.04-.137-.13-.257-.267-.078-.086-.217-.178-.266-.157a1.006,1.006,0,0,0-.054.333,2.777,2.777,0,0,0,.017.286l-.353-.086C2125.534,3287.586,2125.565,3287.513,2125.648,3287.368Z" fill="#fff"/>
      <path id="Tracé_70" data-name="Tracé 70" d="M2119.223,3290.574l1.438-1.619c.155-.175.261-.265.417-.44.185-.208.3-.333.462-.55l.029.025a.475.475,0,0,0-.024.3c.016.144.327.413.363.446l1.871,1.661a.607.607,0,0,0,.263.095.5.5,0,0,0,.2,0l.033.03-2.048,2.306-.618-.268.049-.041.076-.005a1.33,1.33,0,0,0,.629-.193,7.768,7.768,0,0,0,1.294-1.289l.062-.069-1.17-1.039-.782.882a1.1,1.1,0,0,0-.325.528.678.678,0,0,0,.058.384l-.036.04c-.122-.127-.2-.206-.334-.323s-.212-.181-.354-.287l.036-.04a.7.7,0,0,0,.417-.035,1.1,1.1,0,0,0,.44-.355l.772-.87-1-.834c-.4-.326-.532-.114-.858.238-.806.872-1,1.482-.889,1.988l-.032.051Z" fill="#fff"/>
      <path id="Tracé_71" data-name="Tracé 71" d="M2117.993,3296.425a.915.915,0,0,0-.286-.567l-1.956-2.253.055-.048c.573.078.905.14,1.48.2,1.2.133,3.135.38,3.106.347l-1.678-1.866a1.607,1.607,0,0,0-.508-.375.551.551,0,0,0-.326.043l-.029-.026c.139-.1.224-.168.353-.281.155-.135.244-.218.386-.361l.025.03a.737.737,0,0,0-.062.293,1.439,1.439,0,0,0,.293.569l1.575,1.806a.557.557,0,0,0,.307.136,1.957,1.957,0,0,0,.224.012l.029.033a3.286,3.286,0,0,0-.345.275,2.586,2.586,0,0,0-.249.242c-.144-.031-.236-.048-.383-.075-.2-.039-3.561-.4-3.522-.356l1.351,1.534a1.42,1.42,0,0,0,.534.339.642.642,0,0,0,.3,0l.029.033a4.462,4.462,0,0,0-.4.312,3.281,3.281,0,0,0-.309.3l-.029-.033A.485.485,0,0,0,2117.993,3296.425Z" fill="#fff"/>
      <path id="Tracé_72" data-name="Tracé 72" d="M2111.84,3300.344a2.919,2.919,0,0,0,.038-.587l-.19-3.407.055-.032.6.423,2.57,1.585a1.154,1.154,0,0,0,.315.123.8.8,0,0,0,.252.034l.022.038c-.219.111-.346.184-.558.307-.141.088-.226.137-.36.226l-.022-.038a.382.382,0,0,0,.048-.209.349.349,0,0,0-.141-.224l-2.589-1.539.171,2.615a.715.715,0,0,0,.186.457.332.332,0,0,0,.311.068l.022.038s-.24.123-.388.209-.407.253-.407.253l-.022-.038A1.527,1.527,0,0,0,2111.84,3300.344Z" fill="#fff"/>
      <path id="Tracé_73" data-name="Tracé 73" d="M2107.581,3298.327a2.052,2.052,0,0,1,2.731,1.01,2.006,2.006,0,0,1-1.217,2.616,1.967,1.967,0,1,1-1.514-3.626Zm1.485,3.543a1.613,1.613,0,0,0,.711-2.317c-.361-.87-1.128-1.584-2.147-1.134-1.038.456-1.007,1.385-.693,2.234C2107.289,3301.6,2108.1,3302.265,2109.066,3301.87Z" fill="#fff"/>
      <path id="Tracé_74" data-name="Tracé 74" d="M2104.431,3299.587c.211-.064.331-.106.537-.184l.012.037a.479.479,0,0,0-.154.251.775.775,0,0,0,.032.39l.756,2.55a.614.614,0,0,0,.157.228.8.8,0,0,0,.172.112l.012.042a2.642,2.642,0,0,0-.424.1,2.8,2.8,0,0,0-.38.147l-.013-.042a.535.535,0,0,0,.06-.458l-.8-2.538a.99.99,0,0,0-.218-.347.662.662,0,0,0-.235-.118l-.011-.037C2104.126,3299.675,2104.24,3299.645,2104.431,3299.587Z" fill="#fff"/>
      <path id="Tracé_75" data-name="Tracé 75" d="M2100.187,3300.589l.076.1c.253.332.647,1.2,1.012,1.375.336.155.508.115,1.475-.084l.191-.039-.317-1.228a1.041,1.041,0,0,0-.171-.369c-.15-.124-.21-.127-.261-.131l-.008-.039c.2-.025.315-.044.507-.084.239-.049.377-.082.614-.146l.008.039a.56.56,0,0,0-.176.235,1.412,1.412,0,0,0-.024.4l.518,2.494a.716.716,0,0,0,.176.348.847.847,0,0,0,.147.129l.008.044-1.642.337c-.757.156-1.745.254-1.9-.566-.108-.547.4-.853.8-1.008l.226-.091-.224-.049a1.176,1.176,0,0,1-.7-.3c-.327-.352-.608-.919-.817-1.04a2.1,2.1,0,0,0-.262-.131l-.008-.038Zm2.736,3.112.374-.077-.313-1.543-1.058.217c-.881.181-1.041.643-.943,1.023C2101.186,3304.063,2101.649,3303.963,2102.923,3303.7Z" fill="#fff"/>
      <path id="Tracé_76" data-name="Tracé 76" d="M2095.4,3302.785a5.294,5.294,0,0,1,.679-.007l.2.015-.075-1.074a.812.812,0,0,0-.129-.466.638.638,0,0,0-.259-.175v-.039c.206.01.333.012.543.007.255-.007.4-.015.655-.036v.039a.463.463,0,0,0-.24.2.935.935,0,0,0-.073.389l.065,2.653a.561.561,0,0,0,.1.261.59.59,0,0,0,.194.152v.044l-1.593.039c-.767.019-1.842-.141-1.9-.907C2093.5,3303.071,2094.632,3302.838,2095.4,3302.785Zm.661,1.847.283-.007-.06-1.666-.132-.026a3.532,3.532,0,0,0-.613-.024c-.991.024-1.5.4-1.433.959C2094.221,3304.794,2095.244,3304.652,2096.06,3304.632Z" fill="#fff"/>
      <path id="Tracé_77" data-name="Tracé 77" d="M2089.385,3300.753l2.019.2c.248.023.392.057.64.081.272.026.428.037.7.043l0,.044a.417.417,0,0,0-.291.168,1.157,1.157,0,0,0-.11.373l-.242,2.505a.821.821,0,0,0,.039.366.765.765,0,0,0,.15.216l0,.044a3.763,3.763,0,0,0-.522-.079,3.6,3.6,0,0,0-.455-.015l0-.044a.463.463,0,0,0,.166-.141.575.575,0,0,0,.169-.376l.18-2.526c.026-.371-.109-.5-.7-.573a2.373,2.373,0,0,0-1.987.441l-.043-.009Z" fill="#fff"/>
      <path id="Tracé_78" data-name="Tracé 78" d="M2084.2,3303.242a1.013,1.013,0,0,0,.2-.442l.422-1.659a1.4,1.4,0,0,1,1.757-1.029c1.868.383,1.539,1.612,1.517,1.707l-.45,1.983a.561.561,0,0,0-.016.268.467.467,0,0,0,.128.189l-.01.043s-.272-.082-.448-.122-.453-.083-.453-.083l.01-.043a.38.38,0,0,0,.178-.119.638.638,0,0,0,.144-.239l.408-1.907a1.226,1.226,0,0,0-1.061-1.554,1.276,1.276,0,0,0-1.6,1.016l-.342,1.551a1.024,1.024,0,0,0,.033.584.888.888,0,0,0,.17.2l-.009.043s-.26-.074-.422-.111-.432-.083-.432-.083l.01-.043A.613.613,0,0,0,2084.2,3303.242Z" fill="#fff"/>
      <path id="Tracé_79" data-name="Tracé 79" d="M2082.6,3299a4.223,4.223,0,0,1,1.3.847l.08.081-.413.506-.022-.04,0-.051c.071-.666-.682-1.127-1.139-1.3s-1.191-.189-1.4.406c-.2.573.4.827.9,1.127l.137.081c.534.319,1.106.751.868,1.346-.31.782-1.163.753-1.8.5a4.288,4.288,0,0,1-1.216-.765l-.06-.063.357-.468.038.039-.007.05c-.069.547.533.937.928,1.1.572.229,1.079.137,1.276-.306.253-.553-.323-.857-.83-1.166l-.106-.065c-.112-.066-1.229-.6-1.022-1.282C2080.7,3298.79,2081.583,3298.584,2082.6,3299Z" fill="#fff"/>
      <path id="Tracé_80" data-name="Tracé 80" d="M2074.414,3298.421c.1.057.267.127.318.072a.732.732,0,0,0-.041-.35c-.067-.143-.073-.181-.1-.225l.342-.056a1.035,1.035,0,0,0-.035.23c-.024.162-.057.377.02.429.029.018.21-.073.3-.149.126-.095.252-.162.3-.194l.088.374a2.546,2.546,0,0,0-.34.006c-.124,0-.276.067-.284.119s.12.17.254.251.206.142.25.163l-.268.255a2.949,2.949,0,0,0-.149-.33c-.055-.108-.2-.282-.227-.268a.712.712,0,0,0-.142.273c-.052.152-.095.309-.1.354l-.3-.18c.039-.027.125-.141.258-.267.083-.081.169-.223.146-.271a1.006,1.006,0,0,0-.334-.042,2.778,2.778,0,0,0-.285.028l.072-.356C2074.192,3298.316,2074.267,3298.344,2074.414,3298.421Z" fill="#fff"/>
      <path id="Tracé_81" data-name="Tracé 81" d="M2071,3292.126l1.669,1.378c.181.15.274.252.455.4.215.177.343.283.566.442l-.025.03a.459.459,0,0,0-.3-.012c-.144.02-.4.339-.433.377l-1.593,1.929a.607.607,0,0,0-.085.265.5.5,0,0,0,.008.2l-.028.034-2.377-1.963.245-.627.043.048.007.075a1.339,1.339,0,0,0,.216.622,7.812,7.812,0,0,0,1.333,1.247l.072.059,1-1.2-.907-.751a1.108,1.108,0,0,0-.54-.305.677.677,0,0,0-.382.071l-.041-.034c.123-.127.2-.21.311-.346s.173-.218.274-.362l.041.033a.7.7,0,0,0,.05.416,1.1,1.1,0,0,0,.371.426l.9.74.8-1.027c.311-.407.094-.536-.269-.849-.9-.775-1.517-.948-2.018-.817l-.051-.03Z" fill="#fff"/>
      <path id="Tracé_82" data-name="Tracé 82" d="M2065.112,3291.1a.916.916,0,0,0,.557-.306l2.18-2.034.05.054c-.058.575-.107.909-.152,1.485-.09,1.207-.268,3.145-.235,3.115l1.8-1.743a1.621,1.621,0,0,0,.357-.52.562.562,0,0,0-.054-.324l.025-.03c.106.135.176.217.292.342.14.15.227.236.374.373l-.028.026a.727.727,0,0,0-.3-.051,1.434,1.434,0,0,0-.557.312l-1.748,1.638a.548.548,0,0,0-.124.31,1.8,1.8,0,0,0,0,.225l-.033.03a3.314,3.314,0,0,0-.285-.335,2.72,2.72,0,0,0-.252-.24c.026-.145.04-.238.062-.386.031-.2.272-3.57.229-3.53l-1.484,1.405a1.433,1.433,0,0,0-.319.546.651.651,0,0,0,.014.294l-.032.03a4.339,4.339,0,0,0-.326-.384,3.281,3.281,0,0,0-.311-.3l.032-.03A.491.491,0,0,0,2065.112,3291.1Z" fill="#fff"/>
      <path id="Tracé_83" data-name="Tracé 83" d="M2060.959,3285.078a2.934,2.934,0,0,0,.589.018l3.4-.312.034.054-.4.611-1.493,2.626a1.139,1.139,0,0,0-.111.318.84.84,0,0,0-.026.253l-.037.023c-.118-.214-.2-.339-.326-.545-.093-.139-.145-.221-.239-.353l.037-.024a.381.381,0,0,0,.211.042.347.347,0,0,0,.218-.149l1.447-2.643-2.607.264a.716.716,0,0,0-.451.2.331.331,0,0,0-.057.314l-.037.023s-.131-.235-.222-.38-.268-.4-.268-.4l.038-.024A1.475,1.475,0,0,0,2060.959,3285.078Z" fill="#fff"/>
      <path id="Tracé_84" data-name="Tracé 84" d="M2062.825,3280.748a2.051,2.051,0,0,1-.915,2.765,2.006,2.006,0,0,1-2.656-1.125,1.967,1.967,0,1,1,3.571-1.64Zm-3.489,1.608a1.613,1.613,0,0,0,2.34.63c.858-.392,1.544-1.183,1.059-2.186-.493-1.022-1.42-.959-2.257-.614C2059.542,3280.57,2058.906,3281.4,2059.336,3282.356Z" fill="#fff"/>
      <path id="Tracé_85" data-name="Tracé 85" d="M2061.455,3277.656c.073.208.118.326.2.529l-.036.013a.483.483,0,0,0-.257-.144.774.774,0,0,0-.388.046l-2.523.85a.612.612,0,0,0-.223.165.78.78,0,0,0-.1.176l-.042.014a2.583,2.583,0,0,0-.115-.421,2.788,2.788,0,0,0-.16-.374l.042-.015a.666.666,0,0,0,.19.069.683.683,0,0,0,.27-.026l2.508-.892a1,1,0,0,0,.34-.231.668.668,0,0,0,.109-.239l.036-.013C2061.357,3277.353,2061.39,3277.465,2061.455,3277.656Z" fill="#fff"/>
      <path id="Tracé_86" data-name="Tracé 86" d="M2060.3,3273.438l-.1.08c-.323.265-1.181.69-1.337,1.06-.144.342-.1.512.136,1.472l.046.19,1.216-.361a1.06,1.06,0,0,0,.363-.184c.119-.155.119-.215.122-.266l.038-.009c.033.2.056.313.1.5.058.238.1.375.168.609l-.038.009a.552.552,0,0,0-.242-.167,1.4,1.4,0,0,0-.4-.01l-2.475.607a.711.711,0,0,0-.341.189.886.886,0,0,0-.125.151l-.042.01-.4-1.63c-.182-.751-.317-1.735.5-1.923.543-.127.867.373,1.036.76l.1.222.041-.226a1.18,1.18,0,0,1,.276-.707c.34-.339.9-.64,1.01-.854a2.045,2.045,0,0,0,.122-.267l.038-.009Zm-3.012,2.847.09.371,1.531-.368-.256-1.05c-.212-.875-.68-1.017-1.055-.906C2056.862,3274.561,2056.979,3275.021,2057.287,3276.285Z" fill="#fff"/>
      <path id="Tracé_87" data-name="Tracé 87" d="M2057.639,3268.464a6.081,6.081,0,0,1,.029.789l-.01.234,1.244-.121a.959.959,0,0,0,.538-.164.734.734,0,0,0,.194-.306l.045,0c0,.239,0,.386.01.63.015.3.029.465.062.759l-.045,0a.545.545,0,0,0-.242-.273,1.1,1.1,0,0,0-.453-.073l-3.078.158a.66.66,0,0,0-.3.124.68.68,0,0,0-.17.23l-.051,0-.095-1.849c-.046-.89.106-2.142.993-2.239C2057.248,3266.267,2057.554,3267.576,2057.639,3268.464Zm-2.123.826.017.329,1.932-.123.026-.154a4.191,4.191,0,0,0,.009-.711c-.059-1.151-.515-1.731-1.158-1.635C2055.27,3267.159,2055.467,3268.343,2055.516,3269.29Z" fill="#fff"/>
      <path id="Tracé_88" data-name="Tracé 88" d="M2059.892,3261.423l-.207,2.347c-.026.288-.063.456-.089.744-.028.317-.038.5-.044.817l-.051,0a.478.478,0,0,0-.2-.337,1.316,1.316,0,0,0-.433-.124l-2.912-.257a.954.954,0,0,0-.426.047.911.911,0,0,0-.25.178l-.051,0a4.334,4.334,0,0,0,.088-.608,4.2,4.2,0,0,0,.013-.528l.051,0a.531.531,0,0,0,.165.192.669.669,0,0,0,.439.192l2.936.186c.43.026.581-.132.658-.814a2.753,2.753,0,0,0-.531-2.3l.01-.05Z" fill="#fff"/>
      <path id="Tracé_89" data-name="Tracé 89" d="M2057.068,3255.372a1.184,1.184,0,0,0,.51.234l1.92.514a1.622,1.622,0,0,1,1.17,2.057c-.474,2.164-1.9,1.763-2.006,1.736l-2.3-.552a.642.642,0,0,0-.31-.022.529.529,0,0,0-.222.146l-.049-.013s.1-.314.148-.519.1-.524.1-.524l.05.012a.444.444,0,0,0,.137.208.742.742,0,0,0,.274.171l2.21.5a1.421,1.421,0,0,0,1.82-1.209,1.483,1.483,0,0,0-1.155-1.872l-1.8-.42a1.185,1.185,0,0,0-.679.029,1.044,1.044,0,0,0-.234.195l-.049-.012s.089-.3.135-.487.1-.5.1-.5l.05.012A.713.713,0,0,0,2057.068,3255.372Z" fill="#fff"/>
      <path id="Tracé_90" data-name="Tracé 90" d="M2062.069,3253.58a4.914,4.914,0,0,1-1.034,1.475l-.1.089-.571-.5.047-.025.059,0c.77.108,1.335-.747,1.557-1.27s.266-1.374-.416-1.642c-.658-.252-.976.434-1.343.995l-.1.157c-.391.607-.915,1.253-1.6.955-.9-.391-.828-1.38-.516-2.111a4.977,4.977,0,0,1,.935-1.38l.076-.067.53.433-.048.042-.057-.011c-.633-.1-1.109.582-1.309,1.034-.288.655-.2,1.247.3,1.493.633.316,1.007-.342,1.385-.917l.08-.121c.081-.127.742-1.4,1.528-1.136C2062.387,3251.389,2062.591,3252.419,2062.069,3253.58Z" fill="#fff"/>
      <path id="Tracé_91" data-name="Tracé 91" d="M2063.258,3244.064c-.074.115-.167.3-.107.362a.841.841,0,0,0,.408-.02c.172-.067.216-.071.268-.1l.039.4a1.111,1.111,0,0,0-.263-.06c-.187-.04-.433-.095-.5-.009a.753.753,0,0,0,.149.361c.1.153.168.305.2.356l-.44.074a3.07,3.07,0,0,0,.02-.4c0-.143-.057-.324-.117-.338s-.206.127-.31.276-.18.227-.208.277l-.275-.331a3.059,3.059,0,0,0,.394-.147c.129-.055.342-.211.329-.242a.841.841,0,0,0-.307-.186c-.172-.071-.35-.134-.4-.149l.231-.33c.028.047.153.156.289.319.087.1.245.214.3.191a1.156,1.156,0,0,0,.074-.384,3.088,3.088,0,0,0-.01-.333l.407.112C2063.4,3243.815,2063.359,3243.9,2063.258,3244.064Z" fill="#fff"/>
    </g>
    <g id="Groupe_6" data-name="Groupe 6">
      <path id="Tracé_92" data-name="Tracé 92" d="M2110.639,3267.343h-34.327c-.368,0-.735.006-1.1-.011s-.63-.166-.65-.561.245-.578.6-.606.734-.015,1.1-.016h34.147c-.153-.691-.633-.931-.978-1.261q-6.609-6.339-13.242-12.656c-.166-.159-.335-.315-.5-.475-.376-.367-.774-.8-.319-1.292.506-.552.911-.034,1.262.3q3.693,3.513,7.368,7.043c2.718,2.6,5.413,5.233,8.166,7.8.856.8.975,1.355.058,2.222-5.136,4.859-10.225,9.767-15.331,14.657-.2.19-.4.38-.614.552-.271.218-.58.324-.866.05a.653.653,0,0,1,.014-.982c.3-.344.641-.656.972-.974q6.755-6.487,13.51-12.975C2110.1,3267.98,2110.259,3267.771,2110.639,3267.343Z" fill="#fff"/>
    </g>
  </g>
</svg>
