<svg xmlns="http://www.w3.org/2000/svg" width="38.614" height="20.512" viewBox="0 0 38.614 20.512">
  <g id="Groupe_2" data-name="Groupe 2" transform="translate(-2124.494 -1195.652)">
    <path id="Tracé_3" data-name="Tracé 3" d="M2140.689,1216.057c-1.207,0-1.9.027-3.111.107v-.215a2.7,2.7,0,0,0,1.18-1.072,8.507,8.507,0,0,0,.348-2.091l-.08-7.159c-.027-2.9-1.662-5.39-5.041-5.524-3.78-.16-5.6,3.727-5.577,7.321l.081,5.362a4.969,4.969,0,0,0,.321,2.172,2.581,2.581,0,0,0,1.153.991v.215c-.911-.053-1.474-.08-2.412-.08-1.18,0-1.878,0-3.057.08v-.215a2.53,2.53,0,0,0,1.1-1.018,4.056,4.056,0,0,0,.429-2.145l-.054-9.76a3.366,3.366,0,0,0-.563-1.5,2.3,2.3,0,0,0-.7-.617l.027-.24c.643-.135,1.046-.215,1.689-.376.483-.134.777-.214,1.233-.376l.215.108a7.914,7.914,0,0,1,.081.965,19.341,19.341,0,0,0,.161,2.547l.08.349.375-.831a6.208,6.208,0,0,1,5.952-3.754c4.291.215,6.838,2.387,6.971,6.247l.3,7.24a6.315,6.315,0,0,0,.4,2.172,2.668,2.668,0,0,0,1.153.991v.215C2142.324,1216.084,2141.707,1216.057,2140.689,1216.057Z" fill="#fff"/>
    <path id="Tracé_4" data-name="Tracé 4" d="M2150.344,1200.935a2.673,2.673,0,0,1-2.655-2.709,2.634,2.634,0,0,1,2.6-2.574,2.713,2.713,0,0,1,2.708,2.682A2.668,2.668,0,0,1,2150.344,1200.935Zm0-4.558a1.917,1.917,0,1,0,0,3.834,1.917,1.917,0,1,0,0-3.834Z" fill="#fff"/>
    <path id="Tracé_5" data-name="Tracé 5" d="M2160.239,1216.057c-1.26,0-2.011,0-3.244.107v-.268a2.18,2.18,0,0,0,1.233-.778,2.554,2.554,0,0,0,.59-1.8v-12.065a5.243,5.243,0,0,0-.564-2.6,2.252,2.252,0,0,0-1.34-.75l-.027-.161c.858-.269,1.367-.429,2.2-.7.724-.242,1.153-.4,1.877-.67,0,.026-.08.589-.08.965-.054.643-.027,1.635-.027,1.742l.4,13.7a3.261,3.261,0,0,0,.536,2.252,2.37,2.37,0,0,0,1.314.885v.241C2162.009,1216.084,2161.338,1216.057,2160.239,1216.057Z" fill="#fff"/>
  </g>
</svg>
